<svg width="133" height="138" viewBox="0 0 133 138" fill="none" xmlns="http://www.w3.org/2000/svg">
<g clip-path="url(#clip0_89_1230)">
<path d="M125.943 38.0439C118.102 22.8385 105.857 12.8429 89.873 7.51186C79.1365 3.93767 67.9778 3.45304 56.7587 4.54347C55.6127 4.60405 54.4667 4.78579 53.3207 5.08868C54.4667 4.72521 55.6127 4.30115 56.7587 3.99825C63.7556 2.12029 70.9333 2.72608 78.5333 2.78666C74.1302 0.787542 69.6064 2.48377 65.6857 0.363486C64.6 -0.181729 62.9714 0.363486 61.5841 0.424065C61.4032 0.848122 62.8508 1.57508 61.1619 1.75681C60.8 1.75681 60.4381 1.75681 60.0762 1.81739C60.4984 1.69623 60.8 1.5145 61.1016 1.2116C60.3778 0.424065 59.7143 0.605804 59.0508 0.848122C55.5524 0.848122 52.3556 2.24145 48.9778 2.78666C45.8413 3.33188 42.946 4.54347 40.0508 5.9368C35.8286 7.93592 32.0286 10.7226 27.8667 12.964L25.454 14.842C23.1619 17.8104 20.327 20.2335 17.7333 22.8385C14.8984 25.8674 12.1238 29.0176 10.4349 32.8947C9.46986 35.3784 8.20319 37.741 6.69526 39.9824C6.69526 40.043 6.63494 40.1036 6.63494 40.1036L6.45398 40.3459C5.73018 41.2546 5.73018 42.4662 5.127 43.4355C5.06668 43.4961 5.00637 43.6172 4.94605 43.6778C4.94605 43.6778 4.94605 43.7384 4.88573 43.7384C3.7397 47.1914 3.13652 50.7656 1.56827 54.0369C1.68891 55.8543 0.422239 57.5505 0.904779 59.4285C1.56827 60.3977 0.723826 61.367 0.844461 62.3363C0.482557 66.5163 0.723826 70.6962 0.844461 74.8762C1.50795 80.8736 2.47303 86.8104 5.00637 92.3837C5.18732 92.7472 4.46351 92.2019 4.34287 92.5654C4.82541 93.9587 5.24764 95.4127 5.85081 96.806C9.65081 105.529 15.2 112.981 21.7746 119.766C32.8127 129.216 44.9365 135.94 59.8349 137.637C82.9365 140.181 102.54 133.457 118.886 117.04C119.971 115.949 120.816 114.737 121.781 113.526L121.359 113.223L116.171 118.069C115.87 118.251 115.327 118.554 115.146 118.372C114.603 117.766 115.387 117.282 115.387 116.676C115.749 115.343 117.317 114.737 117.438 113.223C117.137 113.041 116.714 113.041 116.413 113.223C116.171 113.405 115.93 113.586 115.689 113.768C115.629 113.829 115.508 113.889 115.448 113.95C115.327 114.011 115.267 113.95 115.206 113.889C115.146 113.768 115.146 113.647 115.146 113.526C115.146 113.465 115.146 113.465 115.146 113.405C114.302 111.89 113.276 112.133 112.311 113.162C111.467 114.071 110.683 114.677 109.537 113.708C105.616 110.073 103.384 109.891 100.79 113.465C94.6984 121.946 86.3143 123.824 76.6635 122.249C75.2159 122.007 73.0445 121.644 73.1651 120.068C73.2857 118.493 75.3968 119.402 76.6635 119.402C82.8159 119.584 87.9429 116.313 89.5714 110.8C89.9333 109.649 90.5968 108.255 89.2699 107.165C87.6413 105.832 87.0984 103.894 86.4952 101.955C85.4698 98.4416 83.4191 95.7156 79.9206 94.3222C76.2413 92.8683 75.8191 92.0808 76.181 88.022C76.2413 87.295 76.3016 86.6286 76.4222 85.9017C76.8445 83.9026 75.7587 83.9631 74.4318 84.4478C71.6572 85.3565 69.3651 87.3556 67.9778 89.8999C67.4349 90.8692 67.0127 91.8385 66.1079 92.5654C63.273 94.6251 60.981 97.4118 59.473 100.562C58.7492 102.076 58.2064 101.895 57.181 100.865C53.2 96.806 50.8476 91.9596 49.4 86.5075C45.1778 70.6357 34.6826 62.3363 19.181 62.518C17.4318 62.518 17.4318 61.7911 17.673 60.64C20.2064 49.3723 24.4286 38.9526 32.873 30.8955C40.3524 23.8077 48.8572 19.5672 59.3524 21.4451C60.6191 21.6875 61.8857 21.9904 63.1524 22.2932L67.0127 17.9921C65.3238 15.5083 62.8508 14.2968 59.9556 13.5092C56.5778 12.6005 53.2 13.4486 49.8222 13.4486C54.4064 11.5707 59.1714 10.6014 63.9365 9.81388C66.2889 9.14751 68.8222 10.1774 71.5365 9.02635C70.9333 8.60229 70.2699 8.29939 69.6064 8.17824C69.0635 8.05708 68.4603 7.9965 67.9175 7.9965C67.073 7.9965 66.1683 8.05708 65.3238 8.17824C66.1683 7.9965 66.8921 7.57244 67.5556 6.96665C67.3143 6.72433 66.6508 7.14839 66.8318 6.48201C66.8921 6.36085 67.4953 6.30027 67.8572 6.23969C79.8603 5.87622 91.7429 8.90519 102.117 14.9631C112.13 20.6576 119.549 28.8964 125.279 38.7709C125.943 38.892 126.184 38.6497 125.943 38.0439Z" fill="#060606"/>
<path d="M49.7623 6.11853C48.9179 6.42143 48.0734 6.66374 47.229 6.90606C46.9274 6.96664 46.6861 7.0878 46.3845 7.14838C46.3242 6.90606 46.3242 6.84548 46.3242 6.7849C46.9274 6.72432 47.5306 6.66375 48.1941 6.54259C48.6766 6.42143 49.2195 6.30027 49.7623 6.11853Z" fill="#060606"/>
<path d="M56.8193 2.60492C56.94 2.48376 57.0606 2.3626 57.1812 2.24144C57.4828 1.99912 57.8447 1.87796 58.2066 1.81738C57.9051 1.87796 57.6035 2.0597 57.3019 2.24144C57.1209 2.3626 56.94 2.48376 56.8193 2.60492Z" fill="#060606"/>
<path d="M1.50822 75.6032C2.35266 81.8428 3.8606 87.9008 6.09234 93.777L4.40345 92.5048C0.0605978 82.2669 -0.542577 71.5443 0.301867 60.5795C0.422502 60.0948 0.603455 59.6708 0.905042 59.2467C2.23203 59.489 2.35266 60.1554 1.50822 61.0641C0.96536 65.971 0.96536 70.8174 1.50822 75.6032Z" fill="#363636"/>
<path d="M45.9016 2.48373C47.2286 1.93851 48.0127 2.42315 49.0381 2.66547C42.1016 5.33096 35.346 8.29936 29.3746 12.8428C28.8921 13.2063 28.4698 13.0246 27.9873 12.8428C28.8921 11.9341 29.6762 10.8437 31.0032 10.4196L45.9016 2.48373Z" fill="#DEDEDD"/>
<path d="M5.12732 43.6778C4.52414 47.3126 4.34319 51.0685 1.62891 53.9763C1.93049 50.1598 3.37811 46.6462 4.64478 43.1326C5.067 43.072 5.36859 43.1326 5.12732 43.6778Z" fill="#2F2F2F"/>
<path d="M25.5146 14.7208C25.6352 15.0843 25.9368 15.5084 25.5146 15.8113C22.74 17.871 20.9908 21.0817 17.7939 22.7173C19.7241 19.3854 22.6797 17.0834 25.5146 14.7208Z" fill="#D7D6D6"/>
<path d="M10.4954 32.7734C10.3144 35.8024 8.32392 38.0439 6.99694 40.5882C6.57472 40.2247 6.5144 39.6189 6.87631 39.1949C6.87631 39.1343 6.93662 39.1343 6.93662 39.0737C7.23821 36.4688 8.80646 34.5908 10.4954 32.7734Z" fill="#7F7F7F"/>
<path d="M6.93659 39.0737C6.51437 39.5584 6.81596 40.043 6.99691 40.5276C5.60961 41.0729 7.2985 43.5566 5.12707 43.6172L4.64453 43.072C5.30802 41.6786 5.42866 39.9824 6.93659 39.0737Z" fill="#3F3F3F"/>
<path d="M115.025 113.465C113.517 111.527 113.035 113.223 112.251 114.192C111.768 114.798 111.225 115.525 110.32 115.283C109.416 115.04 109.717 114.132 109.597 113.526C116.594 106.62 122.625 99.108 126.124 89.6576C126.365 92.0202 125.038 93.9588 124.555 96.0791C128.717 89.2942 130.708 81.7823 131.371 73.907C132.94 74.6945 131.974 75.9061 131.974 76.9965C132.095 83.5391 129.682 89.4153 127.149 95.2915C125.581 98.9263 123.711 102.44 121.66 105.832C120.514 108.68 118.524 110.921 116.473 113.102C116.111 113.405 115.749 114.071 115.025 113.465Z" fill="#151616"/>
<path d="M63.9971 9.7533C66.0479 8.54171 68.4002 9.69272 70.632 9.02635C69.6066 8.35998 68.5209 8.84461 67.4955 8.66287C68.2193 6.90607 69.5463 7.9965 70.632 8.05708C98.2574 8.23882 117.68 27.079 123.47 41.7998C123.168 41.921 122.988 41.8604 122.807 41.5575C110.14 19.5066 91.2002 8.72345 65.7463 9.87446C65.2034 9.87446 64.6002 9.81388 63.9971 9.7533Z" fill="#1A1A1A"/>
<path d="M125.279 38.8315L125.943 38.0439C129.2 43.6173 131.251 49.7964 132.035 56.2178C130.225 50.2204 127.994 44.4048 125.279 38.8315Z" fill="#2E2E2E"/>
<path d="M115.025 113.465C117.8 111.406 119.127 108.074 121.6 105.772C122.083 106.923 121.781 107.71 120.876 108.619C119.67 110.012 118.524 111.466 117.498 112.981C116.413 112.92 116.171 114.011 115.448 114.495C114.965 114.798 114.422 115.525 114 114.859C113.517 114.071 114.543 113.889 115.025 113.465Z" fill="#CBC9C9"/>
<path d="M56.7583 4.4829L45.5996 7.69361C49.2187 5.9368 52.7774 4.24058 56.7583 3.93768C56.8187 4.11942 56.7583 4.30116 56.7583 4.4829Z" fill="#C7C5C5"/>
<path d="M70.6315 7.9965C69.6062 8.42055 68.3998 7.63302 67.495 8.60229H60.7998C63.4538 7.57244 65.6252 7.93592 67.495 6.90607C68.6411 7.02723 69.7268 7.3907 70.6315 7.9965Z" fill="#5C5C5C"/>
<path d="M61.6441 0.302879L63.4536 1.39331C60.7393 2.48374 58.0853 1.93852 55.6123 2.54432C57.1202 1.75679 58.8695 1.33273 60.5583 1.33273C60.7393 1.39331 60.4377 0.787515 60.1964 0.969253C59.9552 1.15099 59.4726 0.848094 59.1107 0.787515C59.8345 0.2423 60.7393 0.0605615 61.6441 0.302879Z" fill="#545454"/>
<path d="M131.914 76.9359C131.431 75.9666 132.276 74.755 131.311 73.8463C131.311 72.3319 131.069 70.8174 132.276 68.5759C132.396 72.029 132.879 74.5127 131.914 76.9359Z" fill="#5F5F5F"/>
<path d="M123.591 42.8903C125.099 44.1624 126.064 45.6163 125.762 48.1607C124.857 46.0404 124.254 44.4653 123.591 42.8903Z" fill="#515151"/>
<path d="M116.292 117.888C115.749 118.796 114.965 119.523 114 120.008C113.457 118.191 114.724 117.464 115.568 116.434C115.629 116.979 115.629 117.585 116.292 117.888Z" fill="#C9C8C7"/>
<path d="M132.578 62.5786L131.914 58.3986L132.638 58.2775C133.12 59.6708 133.12 61.2459 132.578 62.5786Z" fill="#505050"/>
<path d="M127.994 54.3397C127.451 52.8253 126.727 51.6742 127.149 50.2203C127.933 51.3108 128.536 52.5224 127.994 54.3397Z" fill="#C5C5C5"/>
<path d="M8.56551 80.3889C6.4544 72.5742 6.69567 64.7595 8.56551 56.9447C7.96234 64.7595 7.66075 72.5742 8.56551 80.3889Z" fill="#2B2C2C"/>
<path d="M6.15215 66.0922C6.03152 72.9982 7.17755 79.7225 8.98707 87.1132C6.39342 82.8121 5.18707 73.1194 6.15215 66.0922Z" fill="#2B2C2C"/>
<path d="M74.7932 132.972C72.1995 134.244 69.4852 133.457 66.8313 133.457C64.8408 133.396 62.8503 133.032 60.9805 132.366H73.5868C73.9487 132.79 74.5519 132.487 74.7932 132.972Z" fill="#323131"/>
<path d="M1.50821 75.6032C0.362174 70.878 1.1463 66.0316 1.08598 61.1852C1.08598 61.1247 1.20662 61.0641 1.32725 61.0641C1.44789 61.0641 1.50821 61.1247 1.62884 61.1852L1.50821 75.6032Z" fill="#555555"/>
<path d="M79.6191 132.366C82.0922 131.155 84.7461 130.791 87.4604 130.549C85.0477 132.063 82.4541 132.427 79.6191 132.366Z" fill="#555555"/>
<path d="M28.5904 18.1133L24.127 22.1115C25.1523 20.2336 26.419 18.6585 28.5904 18.1133Z" fill="#919090"/>
<path d="M87.4004 130.549C88.9083 129.579 90.7179 128.974 92.5274 128.913C90.9591 129.882 89.3305 130.73 87.4004 130.549Z" fill="#6F6F6F"/>
<path d="M109.536 118.736L112.854 115.828C112.431 117.585 111.165 118.372 109.536 118.736Z" fill="#C0BFBE"/>
<path d="M74.7935 132.972L73.6475 132.366L79.6189 132.306C78.1713 133.578 76.4221 132.669 74.7935 132.972Z" fill="#555555"/>
<path d="M15.0792 101.652C13.9331 100.865 13.5109 99.7137 12.7871 97.7146C14.476 99.1685 14.657 100.501 15.0792 101.652Z" fill="#3A3A3A"/>
<path d="M23.3427 23.0201L20.5078 26.2309C20.5078 24.3529 21.8951 23.6259 23.3427 23.0201Z" fill="#8B8B8A"/>
<path d="M54.4063 49.8569L53.9841 48.3424C54.1047 48.0395 54.165 47.7366 54.2856 47.3731C54.4063 47.0097 54.4666 46.7673 54.5872 46.4039C54.7079 46.1615 54.8888 45.9798 55.1301 45.9192C55.492 45.7981 55.7936 45.7375 56.1555 45.7375C56.3968 45.7375 56.638 45.6769 56.8793 45.6163C57.1206 45.5558 57.3618 45.5558 57.6031 45.4952C57.8444 45.5558 58.0856 45.6163 58.2666 45.7981C58.4476 45.9798 58.6285 46.101 58.8095 46.1615C58.9904 46.0404 59.111 45.9192 59.292 45.7375C59.473 45.5558 59.7142 45.3134 60.0158 45.0105C60.1968 44.7682 60.438 44.5865 60.6793 44.4047C60.8602 44.223 61.1015 44.1624 61.4031 44.1018C61.7047 44.223 61.946 44.3442 62.1872 44.4047C62.3079 44.4653 62.3682 44.5259 62.4285 44.5865C62.4888 44.7076 62.4888 44.7682 62.4888 44.8894C62.4888 45.0711 62.4285 45.2529 62.3682 45.374C62.2476 45.6163 62.1269 45.9798 61.946 46.4039C61.765 46.8279 61.5841 47.252 61.4634 47.5549C61.3428 47.8578 61.2825 48.0395 61.2222 48.2818C60.9809 48.5847 60.7999 48.8876 60.5587 49.2511C60.438 49.4934 60.3174 49.7963 60.3174 50.0386C60.3777 50.5233 60.438 51.0079 60.619 51.432C60.7999 52.0378 61.1618 52.8253 61.5841 53.734C62.1872 54.9456 62.7301 56.2783 63.3333 57.6111C63.8761 59.1255 64.419 60.5189 65.0222 61.9122C65.6253 63.3055 66.2285 64.6383 66.892 65.9104C67.3745 66.9403 67.9174 67.9096 68.5206 68.8788C68.9428 69.5452 69.2444 69.8481 69.4856 69.8481C69.6666 69.8481 69.7872 69.727 69.8476 69.6058C69.9682 69.3029 69.9682 69.0606 69.9682 68.7577C69.9682 68.5759 69.9682 68.3336 70.0285 68.1519C70.0888 67.849 70.1491 67.6067 70.2698 67.3644C70.4507 66.8797 70.5714 66.4557 70.7523 65.971C70.9333 65.1835 71.1142 64.4565 71.2349 63.8507C71.3555 63.245 71.5364 62.6997 71.6571 62.2757C71.7777 61.6699 71.838 61.1247 71.8983 60.5189C71.9587 59.6102 72.0793 58.3986 72.1396 56.8841C72.1396 56.6418 72.1999 56.4601 72.2603 56.2177C72.3206 55.9148 72.3809 55.6119 72.4412 55.2485C72.5015 54.885 72.5618 54.5821 72.6222 54.3398C72.6825 54.0975 72.6825 53.8551 72.6825 53.6734C72.6825 53.1282 72.6222 52.583 72.5618 52.0983C72.5015 51.5531 72.4412 51.0685 72.4412 50.5233C72.6825 49.554 72.9841 48.5847 73.2253 47.676C73.4063 46.8885 73.5872 46.2221 73.7682 45.6769C73.8888 45.2529 74.0698 44.8894 74.2507 44.4653C74.492 43.9201 74.8539 43.4355 75.2761 43.0114C75.6983 42.5874 76.1206 42.2845 76.6634 41.9816H76.9047C77.0253 41.9816 77.146 41.9816 77.2666 42.1027C77.3269 42.1633 77.3872 42.2845 77.3872 42.4056C77.3269 42.6479 77.2666 42.8903 77.146 43.1326C77.2063 43.4355 77.2666 43.6778 77.3269 44.0413C77.2666 44.3442 77.2063 44.7076 77.146 45.0105C77.0856 45.1923 77.0856 45.4346 77.0253 45.7981C76.965 46.2221 76.965 46.6462 76.965 47.0702C76.965 47.4943 76.965 47.8578 76.9047 48.2818C76.8444 48.8876 76.7841 49.7357 76.6031 50.7656C76.4825 52.2195 76.3618 53.6734 76.1809 55.1273C75.9999 56.5812 75.8793 58.0351 75.6983 59.4284C75.5777 61.0035 75.3968 62.6392 75.0952 64.1536C74.8539 65.4864 74.5523 66.7586 74.1301 67.9701C74.0095 68.7577 73.8285 69.4846 73.6476 70.2722C73.4063 71.1203 73.1047 72.029 72.7428 72.9982L71.8983 74.1493C71.3555 74.3916 70.8126 74.5733 70.2095 74.755C69.6063 74.9368 69.0031 75.1185 68.3999 75.2397C68.1587 75.2397 67.7364 74.9368 67.1936 74.331C66.4698 73.4829 65.8666 72.5136 65.2634 71.5443C64.5396 70.3933 63.9968 69.4846 63.5745 68.7577C63.2729 68.2125 62.9714 67.6672 62.7904 67.0615C62.7301 66.9403 62.6698 66.7586 62.6095 66.5162L62.3682 65.7893C62.0063 65.1229 61.5841 64.2748 60.9809 63.245C60.3777 62.2151 59.7745 61.0641 59.111 59.6708C58.9904 59.3073 58.8095 59.0044 58.6285 58.7015C58.3872 58.338 58.146 58.0351 57.9047 57.6716L57.7237 57.7322C57.6031 58.0957 57.4222 58.5198 57.3618 58.8832C57.2412 59.3679 57.1206 59.9131 56.9396 60.5795C56.7587 60.9429 56.5777 61.367 56.3968 61.6699C56.1555 62.5786 55.7936 63.5478 55.492 64.5777C55.1904 65.6075 54.7682 66.7586 54.4063 67.9701C54.2856 68.3942 54.165 68.8183 54.1047 69.2423C53.9841 69.6664 53.8634 70.151 53.7428 70.5751L53.2603 71.3626C53.1999 71.8472 53.0793 72.2713 53.019 72.7559C52.8983 73.1194 52.7174 73.5435 52.5364 74.0281L51.8126 75.8455C51.8126 76.1484 51.6317 76.4513 51.4507 76.633C51.2095 76.8147 50.9079 76.9359 50.6063 76.9359C50.546 76.9965 50.4856 77.0571 50.365 77.1176C50.1841 77.2388 50.0031 77.2994 49.8222 77.2994C49.6412 77.2994 49.4603 77.2388 49.3999 77.0571C49.2793 76.7542 49.2793 76.5119 49.2793 76.209C49.2793 75.8455 49.3396 75.5426 49.3999 75.1791C49.5206 74.6945 49.6412 74.1493 49.8222 73.4223C50.0031 72.6348 50.1841 71.9684 50.3047 71.5443C50.4253 71.1203 50.4856 70.8174 50.546 70.6962C50.6063 70.3327 50.6666 69.8481 50.7872 69.2423C50.9079 68.6365 50.9682 67.9096 51.0888 67.1826C51.1491 67.0009 51.2095 66.698 51.2698 66.4557C51.3301 66.2133 51.4507 65.7893 51.5714 65.3652C51.692 65.0623 51.8126 64.2142 52.1142 62.8209C52.4158 61.4276 52.7174 59.5496 53.1396 57.0658C53.5618 54.5821 53.9841 52.3407 54.4063 49.8569Z" fill="#060606"/>
<path d="M76.9648 68.6971C77.0855 68.5759 77.2664 68.3942 77.3871 68.273L77.8696 67.6672L79.9204 66.4557C80.2823 66.0922 80.6442 65.7287 81.0664 65.4258C81.6093 65.0017 82.2125 64.5171 82.9966 63.9113C83.1172 63.669 83.2379 63.4873 83.4188 63.3055C83.6601 63.0632 83.9014 62.8209 84.1426 62.6391C84.3839 62.4574 84.6252 62.2757 84.8664 62.0939C85.1077 61.9122 85.349 61.7305 85.5902 61.5487C85.8315 61.367 86.1331 61.0641 86.3744 60.8218C86.6156 60.5794 86.8569 60.3371 87.0982 60.1554C87.3998 59.9737 87.641 59.7919 88.0029 59.6708C88.3045 59.5496 88.6664 59.489 89.0283 59.489C89.3299 59.489 89.6315 59.5496 89.9331 59.6102C90.1141 59.6708 90.2347 59.7919 90.295 59.9737C90.114 60.3371 89.9331 60.7006 89.7521 61.0641L89.9331 61.2458C90.7172 61.0035 91.3807 60.7612 91.8029 60.64C92.1045 60.5794 92.3458 60.4583 92.6474 60.4583C93.7331 60.3977 94.8188 60.7612 95.6029 61.4881C96.3267 62.3362 96.6887 63.4873 96.568 64.6383C96.568 64.9412 96.5077 65.2441 96.4474 65.547C96.3871 65.971 96.2664 66.3345 96.0855 66.698C95.9045 67.122 95.7236 67.4855 95.4823 67.849C95.3014 68.0913 95.1204 68.3336 94.8791 68.5154C94.9395 68.6971 94.9998 68.8183 95.1204 68.9394C95.241 69 95.3617 69.0606 95.4823 69.0606C95.6633 69.0606 95.7839 69 95.9045 68.9394C96.0855 68.8183 96.2664 68.6971 96.4474 68.5759C96.6283 68.9394 96.8093 69.3029 96.9902 69.6664C97.1712 70.0298 97.3521 70.3933 97.5331 70.7568L96.5077 71.4837C96.2061 71.7261 95.8442 71.9684 95.5426 72.1501C95.1807 72.3924 94.7585 72.6348 94.3363 72.7559C93.9744 72.8771 93.6125 72.9377 93.2506 72.9377C92.8887 72.9377 92.5267 72.8771 92.2252 72.6953C91.9236 72.5136 91.7426 72.2713 91.5617 71.9684C91.0791 72.5136 90.5363 72.9982 89.9331 73.3617C89.2696 73.7858 88.5458 74.1492 87.822 74.4521C87.3998 74.6339 87.0379 74.755 86.6156 74.8762C86.3141 74.9974 85.9521 74.9974 85.5902 74.9974C85.4093 74.9974 85.2283 75.0579 85.0474 75.1185C84.8664 75.1791 84.6252 75.1791 84.4442 75.2397C83.4188 75.2397 82.3934 74.8156 81.6696 74.1492C80.8855 73.5435 80.4633 72.6348 80.4029 71.6655C80.4029 71.1809 80.5236 70.6962 80.7045 70.2116C80.8252 69.8481 80.9458 69.4846 81.0061 69.1211C81.0061 69 80.9458 68.9394 80.8855 68.8788C80.7648 68.8182 80.6442 68.7577 80.5236 68.7577C80.2823 68.8183 80.041 68.9394 79.8601 69.1211L78.4125 70.151C78.3521 70.2116 78.2918 70.3327 78.2315 70.4539C78.1109 70.6356 77.9902 70.7568 77.8696 70.878C77.749 70.5145 77.568 70.151 77.3871 69.7875C77.2061 69.424 77.1458 69 76.9648 68.6971ZM89.9331 64.4565C89.8125 64.5171 89.6315 64.5777 89.5712 64.6989C89.3902 64.8806 89.2093 65.0623 89.0887 65.2441C88.8474 65.6075 88.5458 65.971 88.2442 66.3951C88.0633 66.5768 87.8823 66.698 87.641 66.8191C87.3998 66.9403 87.1585 67.0009 86.8569 67.0614C86.676 67.0614 86.495 67.2432 86.3141 67.5461C86.0728 67.9096 85.8918 68.3336 85.7109 68.7577C85.5299 69.1817 85.4093 69.5452 85.2887 69.9693C85.2283 70.2722 85.168 70.5145 85.168 70.8174C85.168 71.1809 85.2887 71.5443 85.5299 71.7866C85.8918 72.029 86.2537 72.1501 86.676 72.0895C87.4601 72.0895 88.2442 71.9078 88.968 71.4837C89.7521 70.9991 90.4156 70.3933 90.8982 69.7269L91.6823 68.8788C91.8633 68.7577 91.9839 68.5759 92.0442 68.3942C92.1648 68.1519 92.2252 67.849 92.2855 67.6067L92.768 66.2739C92.6474 65.9104 92.4664 65.547 92.2855 65.1835C92.2252 65.0017 92.0442 64.82 91.8633 64.6989C91.6823 64.6383 91.441 64.5777 91.2601 64.5777C90.9585 64.5777 90.476 64.4565 89.9331 64.4565Z" fill="#060606"/>
<path d="M96.4473 68.6972L96.5679 68.5154L96.9901 68.0308L97.5933 67.3644C98.9203 66.274 100.187 65.0624 101.333 63.7296C102.66 62.1546 103.866 60.5189 104.952 58.8227C105.133 58.5804 105.314 58.3986 105.435 58.1563C105.676 57.7929 105.857 57.49 106.038 57.1265C106.038 57.0659 106.038 56.9447 105.977 56.9447C105.917 56.8842 105.796 56.8842 105.736 56.8842C105.555 56.8842 105.374 56.9447 105.193 56.9447C105.012 57.0053 104.831 57.0053 104.65 57.0053H99.825C99.6441 56.9447 99.4631 56.8842 99.3425 56.8236C99.1616 56.763 99.0409 56.7024 98.9203 56.6418C98.7393 56.5813 98.5584 56.5207 98.4377 56.3995C98.3171 56.3389 98.2568 56.1572 98.2568 56.036C98.1965 55.2485 98.3171 54.461 98.6187 53.734C98.7997 53.2494 99.2219 52.9465 99.7647 52.9465C100.247 52.9465 100.73 52.9465 101.212 53.0071C101.635 53.0071 101.996 53.0677 102.419 53.1282L103.143 53.0071C103.565 53.0071 103.987 53.0071 104.409 53.0677C104.65 53.0677 104.952 53.1282 105.193 53.1888L105.857 53.0677L106.581 52.9465L107.485 53.1888C108.089 53.1282 108.812 52.3407 109.476 50.8868C110.139 49.4329 110.923 48.7059 111.768 48.7059C112.431 48.6454 113.035 49.0694 113.095 49.7358C113.095 49.8569 113.095 49.9781 113.095 50.0387C113.035 50.5233 112.914 51.008 112.733 51.432C112.552 51.8561 112.371 52.2801 112.311 52.7648C112.371 52.8253 112.371 52.8859 112.431 52.9465C112.492 53.0071 112.612 53.1282 112.733 53.1888C112.854 53.2494 112.914 53.3706 112.974 53.4917C113.035 53.6735 113.035 53.8552 113.035 54.0369C113.035 54.7639 112.974 55.4908 112.914 56.2178C112.793 56.7024 112.673 57.0053 112.431 57.0053L110.622 57.3082L110.501 57.8534C110.441 58.0957 110.381 58.3381 110.26 58.641C109.958 59.4285 109.596 60.3978 109.235 61.6094C108.873 62.8209 108.45 64.2143 107.968 65.8499C107.666 67.1827 107.485 68.2125 107.304 69.0001C107.184 69.5453 107.123 70.0905 107.063 70.6357C107.063 70.8174 107.063 70.9992 107.184 71.1809C107.304 71.3021 107.425 71.3627 107.606 71.3627C108.028 71.1809 108.45 70.9386 108.752 70.6963C109.416 70.2722 110.381 69.6058 111.587 68.6972L112.612 70.8174C112.371 71.0598 112.13 71.2415 111.889 71.4232C111.587 71.6655 111.165 71.9079 110.743 72.1502C110.501 72.3319 110.32 72.5137 110.079 72.6954C109.838 72.8771 109.536 73.18 109.174 73.4223C108.812 73.6647 108.511 74.0281 108.209 74.331C107.908 74.6339 107.546 74.9368 107.244 75.2397C106.882 75.6032 106.46 75.9061 105.977 76.0878C105.616 76.2696 105.193 76.3302 104.831 76.3302C104.168 76.3907 103.565 76.1484 103.082 75.7244C102.66 75.2397 102.419 74.5734 102.479 73.907C102.479 73.1195 102.479 72.3319 102.6 71.605C102.66 71.0598 102.781 70.5145 102.962 70.0299C103.022 69.9087 103.082 69.7876 103.143 69.727C103.143 69.5453 103.203 69.3029 103.203 69.1212C103.263 68.8789 103.323 68.576 103.384 68.2125C103.504 67.6067 103.625 67.0009 103.746 66.3951C103.927 66.0317 104.168 65.6076 104.349 65.1835C104.349 65.123 104.289 65.0624 104.108 65.0018L103.866 65.123C103.565 65.547 103.203 65.9105 102.841 66.274C102.358 66.7586 101.816 67.1827 101.273 67.5461C100.368 68.3337 99.4028 69.0606 98.4981 69.8482C98.3774 69.9693 98.3171 70.0905 98.1965 70.2116C98.0155 70.3934 97.8346 70.6357 97.7139 70.8174C97.6536 70.6357 97.533 70.3934 97.352 70.0905C97.1711 69.7876 97.0504 69.4847 96.9298 69.1212C96.8695 69.0606 96.8695 68.9395 96.8092 68.8789C96.6282 68.8789 96.5679 68.7577 96.4473 68.6972Z" fill="#060606"/>
<path d="M111.406 68.6972C111.648 68.3337 111.949 68.0308 112.251 67.7279C112.673 67.3644 113.095 67.0009 113.517 66.698L113.698 65.7893C113.759 65.4864 113.819 65.1835 113.819 64.8807C113.879 64.6383 114 64.3354 114.06 64.0931C114.181 63.7902 114.301 63.4873 114.422 63.1238C114.603 62.6998 114.844 62.2757 115.086 61.8517C115.387 61.2459 115.809 60.7007 116.171 60.1555C116.533 59.792 116.955 59.4285 117.378 59.0044C117.8 58.5804 118.222 58.1563 118.644 57.7323C118.825 57.6111 119.067 57.4294 119.308 57.3082C119.549 57.1871 119.79 57.0659 120.032 56.8842C120.273 56.763 120.514 56.7024 120.755 56.7024C121.057 56.6418 121.359 56.6418 121.66 56.6418C122.022 56.6418 122.384 56.7024 122.746 56.763C122.987 56.8236 123.228 56.9447 123.409 57.1871C123.59 57.3688 123.711 57.5505 123.771 57.7323C123.892 58.0352 124.013 58.3381 124.133 58.641C124.194 58.9439 124.254 59.3073 124.314 59.6708C124.314 59.5497 124.254 59.6102 124.194 59.792C124.133 59.9737 124.013 60.216 123.892 60.5795L123.651 61.3065C123.228 62.2757 122.686 63.1238 121.962 63.9114C120.876 65.123 119.67 66.274 118.403 67.3038C118.282 67.425 118.162 67.5461 118.101 67.7279C118.041 67.9096 117.981 68.0914 117.981 68.2731C117.981 68.576 118.041 68.8789 118.162 69.1212C118.282 69.3635 118.524 69.5453 118.765 69.6664C119.006 69.7876 119.187 69.9087 119.428 69.9693C119.79 70.0905 120.152 70.1511 120.575 70.2116C121.238 70.1511 121.841 70.0905 122.505 69.9087C123.048 69.7876 123.53 69.6058 124.013 69.3635C124.073 69.303 124.254 69.2424 124.435 69.1818C124.676 69.0606 124.857 69.0001 125.038 68.8183C125.279 69.303 125.46 69.6664 125.641 70.0299C125.822 70.3934 125.943 70.6963 126.063 70.9386C125.159 71.6655 124.254 72.3319 123.228 72.8771C122.505 73.3012 121.721 73.4829 120.936 73.5435C120.635 73.7253 120.273 73.8464 119.971 73.907C119.549 73.9676 119.127 74.0281 118.644 74.0281C118.041 74.0281 117.438 73.9676 116.895 73.7858C116.413 73.6647 115.99 73.3618 115.628 73.0589C115.387 72.8771 115.206 72.6348 115.086 72.3925C114.905 72.0896 114.724 71.7261 114.543 71.3021C114.422 71.0598 114.301 70.7569 114.06 70.5751C113.94 70.454 113.759 70.3328 113.578 70.3328C113.397 70.3328 113.216 70.3934 113.095 70.5145C112.854 70.6357 112.673 70.8174 112.492 71.0598C112.371 70.7569 112.251 70.454 112.13 70.2116C111.949 69.6664 111.708 69.1818 111.406 68.6972ZM120.032 61.1853C119.67 61.1853 119.127 61.6094 118.463 62.5181C117.8 63.4267 117.498 64.0931 117.498 64.4566C117.498 64.5172 117.498 64.5778 117.559 64.6383C117.619 64.6989 117.74 64.6989 117.86 64.6989C118.041 64.6989 118.222 64.5778 118.343 64.4566L118.705 63.972C118.886 63.7902 119.067 63.6691 119.308 63.4873L119.851 62.9421C120.032 62.7604 120.213 62.5181 120.333 62.2757C120.454 62.094 120.514 61.8517 120.514 61.6094C120.514 61.4882 120.514 61.367 120.394 61.2459C120.273 61.2459 120.152 61.1853 120.032 61.1853Z" fill="#060606"/>
<path d="M61.041 44.5259C70.3299 39.1949 60.0759 30.6532 71.5966 26.8973C71.8378 26.8367 72.0791 26.7155 72.2601 26.6549C72.0791 26.8367 71.9585 27.079 72.0791 27.3213C72.1394 27.4425 72.1997 27.5636 72.3204 27.6242C72.441 27.6848 72.3807 27.6848 72.441 27.6848C71.6569 27.6848 70.6315 27.9271 69.7267 27.9877C69.1839 28.1088 68.7013 28.0483 68.2188 27.8059C67.7966 27.5031 67.6759 26.8973 67.9775 26.4126L68.0982 26.2915C69.1839 25.0799 70.6918 24.3529 71.9585 23.4442C72.0188 23.3836 71.9585 23.4442 71.9585 23.5048C71.7775 23.8077 71.8982 24.2318 72.1997 24.3529C72.2601 24.4135 72.3807 24.4135 72.5013 24.4135H72.5617L72.441 24.4741C71.1744 25.0193 69.968 25.8674 68.4601 26.1703C68.0378 26.2915 67.6156 26.1097 67.3743 25.7462C67.1934 25.2616 67.314 24.777 67.5553 24.3529C68.3394 23.0807 69.3045 21.9297 70.4505 21.021C70.6315 20.8999 70.8124 20.8393 70.9934 20.8393C71.3553 20.8393 71.6569 21.0816 71.6569 21.4451C71.6569 21.8692 71.5363 22.3538 71.295 22.7173C70.5712 24.2923 69.1839 25.4433 67.5553 25.8674C65.7458 25.928 66.6505 23.9894 67.1331 23.1413C67.6156 22.2932 68.4601 20.8999 68.9426 20.1124C68.8823 20.3547 69.1236 20.6576 69.3648 20.6576H69.4855C69.6664 20.597 69.6664 20.597 69.7267 20.597C68.5807 21.8692 67.6759 23.4442 66.4696 24.7164C66.2886 24.8981 65.9267 24.9587 65.7458 24.7164C65.6855 24.6558 65.6855 24.6558 65.6251 24.5952C65.5045 24.4135 65.5045 24.2318 65.6251 24.05C66.2886 22.4144 67.314 20.8999 68.0378 19.3854L68.0982 19.2642V19.2037C68.0982 19.2037 68.0982 19.2037 68.0982 19.2642C68.0982 19.2642 68.0982 19.5066 68.2188 19.5671C68.3394 19.6883 68.4601 19.6883 68.641 19.6883L68.7617 19.6277L68.641 19.8095C67.6759 21.021 66.7712 22.5355 65.8061 23.8077C65.7458 23.9289 65.6251 23.9894 65.5045 24.1106C65.3839 24.1712 65.3236 24.1712 65.2029 24.1712C65.022 24.1712 64.841 23.8077 64.841 23.6865C64.9013 23.5048 64.9013 23.3836 65.022 23.2019C65.7458 21.6874 66.7109 20.1124 67.314 18.719C67.314 18.9008 67.4347 19.0825 67.6759 19.0825C67.7363 19.0825 67.8569 19.0825 67.9172 19.0219L67.8569 19.0825C66.8918 20.4153 66.0474 21.9297 64.9617 23.2019C64.841 23.3231 64.6601 23.5654 64.4188 23.5654C64.2378 23.5654 64.0569 23.3836 64.0569 23.2019C64.2982 22.2326 64.7204 21.2634 65.1426 20.2941L66.349 17.7498L66.8918 17.9921C66.1077 19.6277 65.3839 21.3239 64.7204 23.0202V23.0807C64.6601 22.899 64.4791 22.8384 64.3585 22.899C65.3236 21.6874 66.2886 19.9306 67.314 18.5373C67.4347 18.3556 67.6156 18.2344 67.8569 18.295C68.0378 18.3556 68.0982 18.5373 68.0982 18.719V18.7796C67.7966 19.5066 67.4347 20.2941 67.0124 20.9605C66.5299 21.8692 66.0474 22.7779 65.6855 23.6865C65.6855 23.626 65.6855 23.6865 65.6855 23.5048C65.6251 23.3836 65.5045 23.3231 65.3839 23.2625C65.2632 23.2019 65.0823 23.3231 65.1426 23.3231L65.2632 23.2019C66.2283 21.8692 67.1331 20.3547 68.1585 19.0219C68.2188 18.9008 68.2791 18.8402 68.3997 18.719C68.5204 18.6584 68.7013 18.719 68.822 18.8402C68.9426 18.9613 68.9426 19.0825 68.9426 19.2037C68.9426 19.3248 68.8823 19.5066 68.822 19.6277C68.0982 21.1422 67.1331 22.7173 66.4696 24.2923C66.4696 24.2318 66.4696 24.1106 66.4093 24.05C66.2886 23.8683 66.1077 23.8077 65.9267 23.8077H65.7458C66.8918 22.5355 67.7363 21.021 68.9426 19.6883C69.1236 19.446 69.4251 19.3854 69.6664 19.5671C69.8474 19.6883 69.9077 19.9306 69.8474 20.1124C69.7267 20.4153 69.5458 20.7787 69.3648 21.021C68.7617 22.1721 67.7363 23.5048 67.495 24.777C67.495 24.7164 67.4347 24.6558 67.3743 24.5952C67.314 24.5952 67.314 24.5952 67.3743 24.5952C68.8823 24.05 70.0283 22.8384 70.5109 21.3239C70.5109 21.5663 70.7521 21.8086 71.0537 21.748H71.114C69.968 22.6567 69.0632 23.8077 68.4601 25.1405C68.4601 25.0193 68.3394 24.8376 68.2188 24.777C69.4251 24.4741 70.9331 23.5048 72.2601 22.9596C72.5617 22.899 72.9236 23.0202 73.0442 23.2625C73.3458 23.9894 72.5013 24.3529 72.0188 24.7164C71.0537 25.3222 70.149 25.9886 69.3045 26.7155C69.2442 26.7761 69.1839 26.8367 69.1236 26.8973C69.0632 26.9578 69.0632 27.0184 69.1236 26.8973C69.1236 26.7155 69.0632 26.5338 68.8823 26.4126C70.0886 26.4732 71.1744 26.0491 72.441 26.0491C72.8632 26.0491 73.2251 26.2915 73.4061 26.6549C73.5267 27.0184 73.3458 27.4425 73.0442 27.6242C71.1744 28.4117 69.0029 28.957 67.8569 30.7138C66.8315 32.1071 66.9521 33.9245 67.0124 35.6207C67.0728 37.5592 66.9521 39.6795 65.9871 41.4363C65.022 43.2537 63.6347 44.7076 61.8855 45.6769L61.041 44.5259Z" fill="#060606"/>
</g>
<defs>
<clipPath id="clip0_89_1230">
<rect width="133" height="138" fill="white"/>
</clipPath>
</defs>
</svg>
