<svg width="694" height="892" viewBox="0 0 694 892" fill="none" xmlns="http://www.w3.org/2000/svg">
<g clip-path="url(#clip0_88_606)">
<path d="M596.662 823.334C593.41 818.073 583.953 816.483 586.929 807.494C587.57 805.909 588.687 804.561 590.125 803.636C591.564 802.711 593.253 802.254 594.962 802.328C605.388 801.309 608.667 808.871 611.677 816.643L596.662 823.334Z" fill="#060606"/>
<path d="M273.293 533.694C276.859 518.502 280.029 503.033 283.965 487.858C288.479 470.521 283.632 455.677 269.991 445.615C233.893 419.034 196.129 408.249 172.307 459.265C164.768 475.411 152.685 487.053 133.354 488.639C119.885 489.745 107.479 487.338 103.398 473.196C99.0177 457.873 111.581 450.869 122.65 445.8C133.72 440.731 146.213 438.655 157.885 434.633C172.255 429.923 185.382 422.043 196.297 411.575C205.823 402.433 202.087 396.39 190.953 395.82C177.368 394.936 163.654 396.513 150.028 396.963C143.897 397.608 137.719 397.674 131.575 397.161C126.663 396.312 119.401 394.968 119.856 388.055C120.323 380.456 127.854 380.773 132.707 381.694C148.573 384.644 164.112 380.349 179.837 380.641C185.19 380.75 194.057 381.015 192.803 372.098C191.786 364.933 184.267 367.286 178.99 367.144C172.196 366.953 161.977 372.912 160.62 361.728C159.442 353.184 169.151 350.354 175.925 347.245C192.907 339.677 214.966 341.364 224.478 319.577C226.777 314.563 232.976 320.642 237.408 321.025C249.266 321.998 258.387 319.883 253.178 304.43L252.989 304.514C258.592 299.387 258.792 293.223 253.044 289.073C247.297 284.924 245.187 290.262 244.205 295.28L242.354 298.961C239.131 280.129 226.231 268.376 212.727 256.483C204.108 248.943 197.65 237.402 209.384 228.637C219.601 221.046 229.681 226.575 237.033 237.173C243.555 246.805 250.907 255.848 259.005 264.199C271.034 276.341 285.208 272.745 290.009 257.275C290.554 255.445 290.706 252.43 291.879 251.908C321.758 238.592 310.941 211.673 312.662 189.188C312.874 186.509 311.849 183.701 312.115 181.043C312.593 175.706 312.274 168.684 318.92 167.627C325.567 166.57 326.873 173.469 328.384 178.69C331.511 190.083 330.679 201.744 330.7 213.388C330.744 223.661 333.924 232.627 344.464 236.137C355.004 239.647 368.061 238.226 369.655 254.519C370.131 258.842 374.7 257.803 377.733 255.454C381.997 252.103 388.267 249.49 390.113 245.086C404.015 211.685 430.058 184.573 436.493 147.335C443.748 105.834 464.722 69.2815 482.295 31.7062C485.428 25.0048 491.213 20.3866 498.932 23.9748C506.651 27.5631 507.327 34.4712 504.307 41.53C486.113 83.9164 478.174 129.985 446.008 167.263C424.625 192.117 415.496 226.565 412.333 260.666C411.506 270.103 416.499 276.221 424.265 280.423C433.007 285.187 439.678 280.219 443.073 273.492C447.323 265.024 469.545 263.01 453.42 245.848C450.924 243.197 459.628 236.688 464.46 233.084L469.773 256.198C466.491 269.178 459.592 281.366 458.467 299.188C479.397 287.05 502.806 286.276 518.726 268.39C523.038 264.019 527.905 260.234 533.203 257.133C534.917 255.911 537.02 255.363 539.112 255.593C541.205 255.823 543.139 256.815 544.548 258.379C547.873 261.976 546.099 266.031 543.5 269.456C538.388 275.967 531.474 280.83 523.619 283.439C505.715 290.058 492.818 303.332 479.655 316.317C471.469 324.499 473.502 330.485 482.862 335.518C497.001 343.137 512.632 345.558 525.797 358.417C535.195 367.605 555.619 358.503 570.953 354.663C576.014 353.405 584.416 347.439 586.574 356.045C588.377 363.04 579.275 364.285 573.538 366.161C555.999 372.171 537.23 373.675 518.957 370.534C510.42 369.078 499.562 366.481 498.933 380.228C498.358 392.772 508.121 397.081 518.328 395.979C531.852 394.486 541.482 395.953 542.941 415.707C519.731 402.382 499.91 413.754 479.69 420.769C471.558 423.577 458.205 424.132 464.923 439.003C470.402 451.298 478.658 458.228 494.359 444.022C490.044 458.55 495.066 464.428 505.875 467.728C522.698 472.927 535.186 484.773 546.719 497.634L550.28 508.88C517.262 488.906 478.525 479.19 449.452 452.2C446.018 448.969 441.402 445.63 436.662 448.831C431.923 452.031 432.105 457.119 433.397 461.848C436.292 472.211 434.127 483.831 441.196 493.286C444.901 498.346 445.104 503.379 438.204 506.408L426.773 511.276C401.79 507.4 380.756 527.747 381.062 558.851C381.296 584.501 380.81 610.472 396.413 633.989C408.385 652.005 398.275 672.652 396.597 692.081C396.173 697.031 390.836 699.5 385.496 699.113C382.731 698.811 380.138 697.624 378.101 695.73C376.065 693.836 374.694 691.335 374.192 688.599C368.636 670.943 363.727 652.908 367.003 634.218C371.842 606.216 365.041 579.865 356.919 553.604C352.578 539.488 341.507 530.819 330.277 523.626C315.388 514.119 295.584 521.765 286.02 538.451L273.293 533.694Z" fill="#060606"/>
<path d="M574.568 519.639C593.258 524.55 610.79 532.154 624.641 545.841C642.004 562.476 662.193 575.881 684.26 585.427C723.111 603.027 751.957 637.238 793.406 650.598C798.284 652.187 803.994 656.353 800.487 663.13C796.979 669.908 790.326 669.018 784.714 665.172C745.584 638.4 702.517 618.462 661.398 595.162C641.76 584.053 630.237 560.94 609.315 552.444C592.435 545.593 585.021 532.211 574.9 520.08L574.568 519.639Z" fill="#060606"/>
<path d="M117.402 239.519C130.491 235.727 142.319 236.532 148.716 250.277C154.742 263.189 148.913 273.404 137.184 278.721C125.455 284.039 112.55 282.444 106.153 268.7C100.181 255.808 107.143 246.812 117.402 239.519Z" fill="#060606"/>
<path d="M273.293 533.694L285.739 538.531C279.164 551.754 272.826 565.098 265.906 578.156C263.456 582.83 259.581 588.275 253.237 585.026C246.894 581.777 247.365 574.494 250.475 569.163C257.631 557.042 265.632 545.496 273.293 533.694Z" fill="#060606"/>
<path d="M426.508 511.394L437.939 506.526C441.649 516.073 446.066 525.576 448.788 535.245C450.18 540.202 449.835 547.157 442.979 548.761C436.123 550.365 432.977 545.238 431.726 539.583C429.619 530.275 428.238 520.87 426.508 511.394Z" fill="#060606"/>
<path d="M469.677 256.286L464.363 233.172L485.121 209.866C488.11 229.391 468.052 238.602 469.677 256.286Z" fill="#060606"/>
<path d="M483.737 174.209C479.555 175.709 477.371 173.962 476.792 171.137C476.226 167.731 476.645 164.233 478.002 161.058C479.358 157.883 481.594 155.162 484.446 153.217C486.87 151.23 489.862 153.569 490.437 156.487C491.774 163.962 487.84 169.478 483.737 174.209Z" fill="#060606"/>
<path d="M548.693 13.77C547.108 29.8472 541.302 37.8757 530.225 46.893C530.759 40.3727 532.684 34.0428 535.87 28.3293C539.055 22.6159 543.428 17.6514 548.693 13.77Z" fill="#060606"/>
<path d="M550.083 509.149L546.522 497.904C553.204 502.725 561.12 506.044 566.014 513.974C557.908 518.267 554.345 512.509 550.083 509.149Z" fill="#060606"/>
<path d="M253.077 304.203C247.442 306.714 245.431 301.489 242.27 298.771L244.12 295.09L252.791 304.376L253.077 304.203Z" fill="#060606"/>
<path d="M574.9 520.08C574.548 517.154 572.947 517.323 571.393 518.923C571.189 519.416 571.107 519.951 571.155 520.482C571.202 521.014 571.377 521.526 571.665 521.975C573.646 522.861 575.429 522.792 574.585 519.677L574.9 520.08Z" fill="#060606"/>
<path d="M252.888 304.287L244.217 295.002C245.216 290.022 247.199 284.605 253.056 288.796C258.913 292.987 258.525 299.236 252.888 304.287Z" fill="#060606"/>
</g>
<defs>
<clipPath id="clip0_88_606">
<rect width="774.064" height="593.991" fill="white" transform="translate(542.557) rotate(65.9808)"/>
</clipPath>
</defs>
</svg>
