<svg width="50" height="49" viewBox="0 0 50 49" fill="none" xmlns="http://www.w3.org/2000/svg">
<path d="M34.6146 42.2816C40.2479 43.4442 45.4953 45.0668 50 48.5786C33.2642 42.1751 16.6104 42.083 0 49C3.91627 45.8806 8.39683 44.0545 13.2005 42.9162C16.2149 42.2041 16.9287 41.0077 15.7615 37.9464C14.5606 34.7979 13.1282 31.7318 11.6716 28.6899C10.0849 25.3913 7.66374 22.3687 8.8309 19.1137C6.97405 17.9657 5.57538 17.1762 4.24423 16.2461C3.89698 16.004 3.46291 15.2774 3.58348 15.04C4.741 12.56 3.81017 9.35824 6.40494 7.3529C8.48847 5.73991 10.0945 3.72973 9.72316 0C13.4851 4.68397 19.4849 5.78835 21.5733 11.5622C22.2871 13.5433 24.2983 15.5632 26.2323 16.4932C33.1243 19.8209 35.8783 25.5269 36.621 32.686C36.6548 33.0057 36.6548 33.3303 36.6837 33.6548C36.7126 33.9793 36.7512 34.2893 36.8332 35.0595C37.5984 34.6184 38.3376 34.1332 39.047 33.6064C41.1627 31.844 42.6344 29.4247 43.2299 26.7296C43.8255 24.0346 43.5111 21.2171 42.3363 18.7213C41.132 16.1943 39.1314 14.1369 36.6445 12.8679C34.1576 11.5989 31.3233 11.1894 28.5811 11.7027C28.2676 11.7608 27.9251 12.0126 27.6647 11.9351C26.9917 11.7177 26.3315 11.4622 25.6873 11.1698C26.1455 10.545 26.4831 9.56653 27.0859 9.35825C32.3912 7.51276 39.3653 9.88622 43.0018 14.6428C49.0885 22.5867 46.3779 33.6984 37.2142 37.9949C35.2899 38.8571 34.5278 40.068 34.6146 42.2816ZM23.5844 41.4485C25.8947 40.6541 27.7129 36.8469 27.274 34.5461L23.5844 41.4485Z" fill="#060606"/>
</svg>
